<svg xmlns="http://www.w3.org/2000/svg" width="722.775" height="670.004" viewBox="0 0 722.775 600.004">
  <g id="Group_1" data-name="Group 1" transform="translate(0 -0.019)">
    <ellipse id="Ellipse_1" data-name="Ellipse 1" cx="358" cy="24" rx="358" ry="24" transform="translate(0 622.023)" fill="#3f3d56"/>
    <rect id="Rectangle_1" data-name="Rectangle 1" width="12" height="7" transform="translate(352 384.023)" fill="#3f3d56"/>
    <rect id="Rectangle_2" data-name="Rectangle 2" width="12" height="7" transform="translate(376 384.023)" fill="#3f3d56"/>
    <rect id="Rectangle_3" data-name="Rectangle 3" width="12" height="7" transform="translate(400 384.023)" fill="#3f3d56"/>
    <rect id="Rectangle_4" data-name="Rectangle 4" width="12" height="7" transform="translate(424 384.023)" fill="#3f3d56"/>
    <rect id="Rectangle_5" data-name="Rectangle 5" width="12" height="7" transform="translate(448 384.023)" fill="#3f3d56"/>
    <rect id="Rectangle_6" data-name="Rectangle 6" width="12" height="7" transform="translate(472 384.023)" fill="#3f3d56"/>
    <rect id="Rectangle_7" data-name="Rectangle 7" width="12" height="7" transform="translate(496 384.023)" fill="#3f3d56"/>
    <rect id="Rectangle_8" data-name="Rectangle 8" width="12" height="7" transform="translate(520 384.023)" fill="#3f3d56"/>
    <rect id="Rectangle_9" data-name="Rectangle 9" width="12" height="7" transform="translate(544 384.023)" fill="#3f3d56"/>
    <rect id="Rectangle_10" data-name="Rectangle 10" width="12" height="7" transform="translate(568 384.023)" fill="#3f3d56"/>
    <rect id="Rectangle_11" data-name="Rectangle 11" width="12" height="7" transform="translate(592 384.023)" fill="#3f3d56"/>
    <path id="Path_1" data-name="Path 1" d="M870.109,503.512a144,144,0,0,1-288,0Z" transform="translate(-238.609 -114.988)" fill="#3f3d56"/>
    <path id="Path_2" data-name="Path 2" d="M863.149,504.432l-91.6-273.04a143.9,143.9,0,0,1,182.32,90.72c.97,2.89,1.85,5.8,2.63,8.71A144.007,144.007,0,0,1,863.149,504.432Z" transform="translate(-238.609 -114.988)" fill="#3f3d56"/>
    <circle id="Ellipse_2" data-name="Ellipse 2" cx="18" cy="18" r="18" transform="translate(610 375.023)" fill="#3f3d56"/>
    <path id="Path_3" data-name="Path 3" d="M683.609,541.012a5,5,0,0,0,0,10h86a5,5,0,0,0,0-10Z" transform="translate(-238.609 -114.988)" fill="#6c63ff"/>
    <path id="Path_4" data-name="Path 4" d="M607,649.023l-17.906.662L524.584,510.95l16.322-7.589Z" fill="#3f3d56"/>
    <path id="Path_5" data-name="Path 5" d="M368,649.023l17.906.662,64.51-138.735-16.322-7.589Z" fill="#3f3d56"/>
    <rect id="Rectangle_12" data-name="Rectangle 12" width="148" height="10" transform="translate(414 569.023)" fill="#3f3d56"/>
    <path id="Path_6" data-name="Path 6" d="M775.21,226.294a4.5,4.5,0,0,0-4.3,5.814l3.794,12.434a4.5,4.5,0,0,0,8.609-2.626l-3.794-12.434a4.51,4.51,0,0,0-4.307-3.188Z" transform="translate(-238.609 -114.988)" fill="#6c63ff"/>
    <path id="Path_7" data-name="Path 7" d="M576.109,506.012a4.5,4.5,0,0,0,0,9h13a4.5,4.5,0,0,0,0-9Z" transform="translate(-238.609 -114.988)" fill="#6c63ff"/>
    <path id="Path_8" data-name="Path 8" d="M683.609,473.012h-54c-.34,0-.67.01-1,.04a14,14,0,0,0-.03,27.92c.34.03.68.04,1.03.04h54a14,14,0,1,0,0-28Z" transform="translate(-238.609 -114.988)" fill="#ff6584"/>
    <path id="Path_9" data-name="Path 9" d="M624.169,499.9c9.2-1.18,16.44-12.79,16.44-26.89h-2c0,13.79-7.18,25-16,25v1.12Z" transform="translate(-238.609 -114.988)" opacity="0.2"/>
    <path id="Path_10" data-name="Path 10" d="M643.609,500.012v-2c8.822,0,16-11.215,16-25h2C661.609,487.9,653.534,500.012,643.609,500.012Z" transform="translate(-238.609 -114.988)" opacity="0.2"/>
    <path id="Path_11" data-name="Path 11" d="M664.609,500.012v-2c8.822,0,16-11.215,16-25h2C682.609,487.9,674.534,500.012,664.609,500.012Z" transform="translate(-238.609 -114.988)" opacity="0.2"/>
    <path id="Path_12" data-name="Path 12" d="M781.609,473.012h-54c-.34,0-.67.01-1,.04a14,14,0,0,0-.03,27.92c.34.03.68.04,1.03.04h54a14,14,0,1,0,0-28Z" transform="translate(-238.609 -114.988)" fill="#ff6584"/>
    <path id="Path_13" data-name="Path 13" d="M722.169,499.9c9.2-1.18,16.44-12.79,16.44-26.89h-2c0,13.79-7.18,25-16,25v1.12Z" transform="translate(-238.609 -114.988)" opacity="0.2"/>
    <path id="Path_14" data-name="Path 14" d="M741.609,500.012v-2c8.822,0,16-11.215,16-25h2C759.609,487.9,751.534,500.012,741.609,500.012Z" transform="translate(-238.609 -114.988)" opacity="0.2"/>
    <path id="Path_15" data-name="Path 15" d="M762.609,500.012v-2c8.822,0,16-11.215,16-25h2C780.609,487.9,772.534,500.012,762.609,500.012Z" transform="translate(-238.609 -114.988)" opacity="0.2"/>
    <path id="Path_16" data-name="Path 16" d="M679.657,338.568c-7.077-3.823-15.826.346-19.353,7.114-4.29,8.232-.734,18.128,4.268,25.164,5.2,7.311,12.253,13.346,15.722,21.8a36.432,36.432,0,0,1-14.213,44.867c-3.255,2.059-.248,7.253,3.028,5.181a42.6,42.6,0,0,0,15.2-55.584,59.447,59.447,0,0,0-7.808-11.035c-5.205-6.161-11.758-12.952-12.085-21.523a13.548,13.548,0,0,1,.231-3.32,11.675,11.675,0,0,1,.693-2.227,10.857,10.857,0,0,1,3.152-3.933,9.592,9.592,0,0,1,4.291-1.943,6.435,6.435,0,0,1,3.848.623c3.4,1.836,6.43-3.343,3.028-5.181Z" transform="translate(-238.609 -114.988)" fill="#e6e6e6"/>
    <path id="Path_17" data-name="Path 17" d="M769.94,374.862a17.5,17.5,0,0,0-17.508,4.069,10.633,10.633,0,0,0-2.844,9.284c.572,3.636,2.868,6.865,5.358,9.468,4.873,5.092,11.693,8.385,15.779,14.231a17.86,17.86,0,0,1,3.3,8.468,16,16,0,0,1-1.464,8c-3.048,6.2-9.1,10.41-15.481,13.123-1.491.634-1.82,2.833-1.076,4.1a3.08,3.08,0,0,0,4.1,1.076c11.744-4.992,22.609-16.174,19.37-29.912-1.7-7.227-6.926-12.327-12.55-16.761a70.327,70.327,0,0,1-7.892-6.735c-1.945-2.065-3.965-4.886-3.608-7.685a4.25,4.25,0,0,1,1.348-2.528,11.63,11.63,0,0,1,2.972-1.975,11.18,11.18,0,0,1,8.6-.446,3.028,3.028,0,0,0,3.69-2.1,3.061,3.061,0,0,0-2.1-3.69Z" transform="translate(-238.609 -114.988)" fill="#e6e6e6"/>
    <path id="Path_18" data-name="Path 18" d="M724.264,289.513a10.293,10.293,0,0,0-6.4-2.463,11.3,11.3,0,0,0-6.228,2.014,21.441,21.441,0,0,0-8.252,12.364c-3.032,11.613.923,24.131,6.418,34.359,2.778,5.171,6.013,10.078,8.81,15.239a67.63,67.63,0,0,1,6.162,15.636,75.59,75.59,0,0,1,.743,34.128c-2.4,11.231-7.452,22.352-16.046,30.1a3,3,0,0,0,4.243,4.243c7.627-6.878,12.728-16.313,15.807-26.014a79.764,79.764,0,0,0,2.913-33.895,77.7,77.7,0,0,0-3.846-16.622,91.761,91.761,0,0,0-7.632-15.579c-5.639-9.535-11.643-19.178-12.459-30.532-.4-5.583.3-11.4,3.751-15.892-.189.246.152-.179.153-.18q.314-.376.651-.732a13.263,13.263,0,0,1,1.378-1.283c-.1.083-.37.26.114-.075.24-.167.486-.327.738-.475.205-.121.416-.228.626-.339q.187-.1.379-.18-.438.189.049,0c.235-.074,1.4-.325.752-.243a6.045,6.045,0,0,1,.648-.042c.092,0,.9.04.506,0-.462-.051.366.082.372.084a5.933,5.933,0,0,1,.762.241c-.624-.249,1.024.677.643.381a3.1,3.1,0,0,0,4.243,0c1.035-1.035,1.286-3.243,0-4.243Z" transform="translate(-238.609 -114.988)" fill="#e6e6e6"/>
    <path id="Path_19" data-name="Path 19" d="M255.288,625.4l-22.618,6L191.127,439.38l46.621-4.155Z" fill="#ffb9b9"/>
    <path id="Path_20" data-name="Path 20" d="M151.8,628.352l-23.138,3.5L108.331,436.439l46.8.959Z" fill="#ffb9b9"/>
    <path id="Path_21" data-name="Path 21" d="M378.5,465.281l2.137,39.882a10.239,10.239,0,0,1-11.152,10.745h0a10.239,10.239,0,0,1-9.273-9.3l-3.868-44.094-30.465-103.4.923-66.469,36,1.846Z" transform="translate(-238.609 -114.988)" fill="#ffb9b9"/>
    <path id="Path_22" data-name="Path 22" d="M397.887,563.138q-27.052-9.392-62.776-3.693c3.378-40.01,5.334-77.164,3.693-107.089H461.586Z" transform="translate(-238.609 -114.988)" fill="#2f2e41"/>
    <path id="Path_23" data-name="Path 23" d="M483.742,562.215c-18.588,9.833-45.476,14.54-76.624,16.617L368.344,455.126l95.088-1.846Z" transform="translate(-238.609 -114.988)" fill="#2f2e41"/>
    <path id="Path_24" data-name="Path 24" d="M531.607,760.463l-66.89,2.477c-8.568.317-9.02-7.041-7.4-15.461l7.919-22.612c17.829,17.468,19.509,18.444,27.152-6.4l23.326,18.424,17.266,2.96a10.387,10.387,0,0,1,8.632,10.254h0a10.387,10.387,0,0,1-10,10.363Z" transform="translate(-238.609 -114.988)" fill="#2f2e41"/>
    <path id="Path_25" data-name="Path 25" d="M430.3,760.463l-66.89,2.477c-8.568.317-9.02-7.041-7.4-15.461l7.919-22.612c17.829,17.468,19.509,18.444,27.152-6.4L414.4,736.886l17.266,2.96A10.387,10.387,0,0,1,440.3,750.1h0a10.387,10.387,0,0,1-10,10.363Z" transform="translate(-238.609 -114.988)" fill="#2f2e41"/>
    <circle id="Ellipse_3" data-name="Ellipse 3" cx="36.004" cy="36.004" r="36.004" transform="translate(171.279 7.793)" fill="#ffb9b9"/>
    <path id="Path_26" data-name="Path 26" d="M188.819,107.5,146.353,94.572,174.972,52.1l32.311,13.848Z" fill="#ffb9b9"/>
    <path id="Path_27" data-name="Path 27" d="M467.125,463.435c-43.655,9.815-92.116,5.921-133.861-5.539,10-55.745,5.17-115.623-4.616-164.326-7.66-38.121,12.547-70.11,46.159-85.856a93.607,93.607,0,0,1,22.379-5.039c23.578-2.089,44.324,15.59,46.784,39.132Z" transform="translate(-238.609 -114.988)" fill="#6c63ff"/>
    <path id="Path_28" data-name="Path 28" d="M114.965,197.045,84.5,193.352l9.232-48.005h21.233Z" fill="#6c63ff"/>
    <path id="Path_29" data-name="Path 29" d="M445.389,164.486l-5.516-2.451a9.428,9.428,0,0,0-12.943,6.243h0l-7.687,13.889-19.145-3.03.669-29.4a41.1,41.1,0,0,1,49.617-33.726l.523.118c9.346,2.114,21.48,8.977,27.814,16.18l11.8,13.421a4.637,4.637,0,0,1-2.966,7.669l-16.141,1.781Z" transform="translate(-238.609 -114.988)" fill="#2f2e41"/>
    <path id="Path_30" data-name="Path 30" d="M564.81,410.025l-20.674,18.134a1.5,1.5,0,0,1-1.978-2.255l20.674-18.134-3.956-4.511L538.2,421.393a1.5,1.5,0,1,1-1.978-2.255L556.9,401l-3.956-4.511-20.674,18.134a1.5,1.5,0,1,1-1.978-2.255l20.674-18.134-4.946-5.638L516.8,414.226a15.14,15.14,0,0,0-3.219,18.786L425.375,510.38l7.913,9.021,88.149-77.319a14.661,14.661,0,0,0,18.747-.482l29.571-25.938Z" transform="translate(-238.609 -114.988)" fill="#e6e6e6"/>
    <path id="Path_31" data-name="Path 31" d="M464.356,465.281l2.137,39.882a10.239,10.239,0,0,1-11.152,10.745h0a10.239,10.239,0,0,1-9.273-9.3L442.2,462.512l-30.465-103.4.923-66.469,36,1.846Z" transform="translate(-238.609 -114.988)" fill="#ffb9b9"/>
    <path id="Path_32" data-name="Path 32" d="M451.431,304.648c-10.955-10.509-25.415-10.894-41.543-6.462V248.572a22.394,22.394,0,0,1,22.394-22.394h0a20.507,20.507,0,0,1,20.5,20.989Z" transform="translate(-238.609 -114.988)" fill="#6c63ff"/>
  </g>
</svg>
