<svg xmlns="http://www.w3.org/2000/svg" width="998.282" height="772.773" viewBox="0 0 998.282 772.773">
  <g id="Group_2" data-name="Group 2" transform="translate(0)">
    <path id="Path_33" data-name="Path 33" d="M544.3,239.332a368.02,368.02,0,0,1-120.722-20.265c-52.052-18-94.7-42.821-126.742-73.782C236.211,86.719,186.511,77.893,155.5,80.8c-33.57,3.147-53.111,20.338-53.3,20.511l-1.336-1.489c.2-.177,20.141-17.758,54.323-21,20.045-1.9,41.008,1.411,62.307,9.847,26.561,10.52,53.723,29.085,80.733,55.179,31.836,30.757,74.231,55.429,126.006,73.33,95.047,32.861,202.169,24.905,293.9-21.829,30.371-15.475,60.389-26.037,89.218-31.394,36.354-6.757,70.83-5.188,102.479,4.658,69.549,21.637,117.054,20.49,144.658,15.719,29.784-5.148,43.3-15.451,43.431-15.554l1.229,1.579c-.56.435-14.046,10.714-44.319,15.946-27.822,4.81-75.667,5.975-145.592-15.781-70.8-22.024-142.509,2.312-190.2,26.608A383.881,383.881,0,0,1,573.4,238.214Q558.795,239.331,544.3,239.332Z" transform="translate(-100.859 -63.613)" fill="#3f3d56"/>
    <circle id="Ellipse_4" data-name="Ellipse 4" cx="20.268" cy="20.268" r="20.268" transform="translate(419.132 160)" fill="#6c63ff"/>
    <circle id="Ellipse_5" data-name="Ellipse 5" cx="20.268" cy="20.268" r="20.268" transform="translate(733.132 79)" fill="#6c63ff"/>
    <circle id="Ellipse_6" data-name="Ellipse 6" cx="20.268" cy="20.268" r="20.268" transform="translate(80.132 0)" fill="#6c63ff"/>
    <path id="Path_34" data-name="Path 34" d="M685.6,548.1V743.923h30.79V565.338H839.555V743.922h30.79V352.269h-30.79c-10.2,0-25.864,53.139-25.864,106.535,0,40.247,4.7,74.74,11.384,89.292Zm153.952,0h-.3c.1-.219.2-.45.3-.678Z" transform="translate(-100.859 -63.613)" fill="#3f3d56"/>
    <path id="Path_35" data-name="Path 35" d="M799.7,255.342h0c-25.274,0-45.762,22.738-45.762,50.786v35.636H764.9l6.345-13.2-1.586,13.2h70.446l5.768-12-1.442,12h7.932V313.783C852.365,281.507,828.788,255.342,799.7,255.342Z" transform="translate(-100.859 -63.613)" fill="#2f2e41"/>
    <path id="Path_36" data-name="Path 36" d="M747.268,488.168l-28.1,11.942-97.64,79.376a28.738,28.738,0,0,0-6.322,15.454c-.7,9.132-30.205,56.9-19.668,63.22s48.469,25.288,50.576,12.644,13.346-66.732,13.346-66.732l94.128-84.293Z" transform="translate(-100.859 -63.613)" fill="#2f2e41"/>
    <path id="Path_37" data-name="Path 37" d="M636.985,660.266l-11.942,35.122s12.644,13.346,6.322,24.586v38.634h-9.834l-2.81-20.371s-11.2,20.114-16.859,20.371c-11.86.539-35.346,4.758-36.049-1.564S583.6,744.559,583.6,744.559l19.668-54.088,8.429-33.015Z" transform="translate(-100.859 -63.613)" fill="#2f2e41"/>
    <path id="Path_38" data-name="Path 38" d="M820.323,479.036s6.322,61.815-11.942,73.054-99.045,47.064-99.045,47.064,34.42,32.312,27.4,40.039-38.634,28.8-42.849,24.586-51.278-54.791-45.659-70.947,83.591-68.839,83.591-68.839l9.132-33.015,2.81-26.693,29.5-18.966Z" transform="translate(-100.859 -63.613)" fill="#2f2e41"/>
    <circle id="Ellipse_7" data-name="Ellipse 7" cx="29.284" cy="29.284" r="29.284" transform="translate(657.997 212.934)" fill="#ffb9b9"/>
    <path id="Path_39" data-name="Path 39" d="M810.84,317.825s-1.4,26.693,20.371,35.122-54.088,63.22-54.088,63.22V355.054s9.834-10.537,0-26.693Z" transform="translate(-100.859 -63.613)" fill="#ffb9b9"/>
    <path id="Path_40" data-name="Path 40" d="M857.552,443.211l-5.62,27.4-16.858,94.128s14.049,40.039-4.917,39.337-9.834-43.552-9.834-43.552l9.834-77.971V452.343Z" transform="translate(-100.859 -63.613)" fill="#ffb9b9"/>
    <path id="Path_41" data-name="Path 41" d="M736.732,429.865l-6.322,24.586-28.8,69.542S681.941,557.007,698.1,556.3s16.156-32.312,16.156-32.312l33.015-56.2v-31.61Z" transform="translate(-100.859 -63.613)" fill="#ffb9b9"/>
    <path id="Path_42" data-name="Path 42" d="M731.815,634.978,755,656.754s16.156-3.512,22.478,15.454,10.537,30.907,10.537,30.907l-8.429,4.917-10.537-14.751s-6.322,26.693-12.644,28.8-37.932,16.156-35.122,0L736.732,699.6s2.107-25.288-4.215-27.4-23.181-23.181-23.181-23.181Z" transform="translate(-100.859 -63.613)" fill="#2f2e41"/>
    <path id="Path_43" data-name="Path 43" d="M821.436,500.812s-66.03-23.883-70.244-21.776A31.68,31.68,0,0,1,741.3,481.6l.06-9.592s21.776-7.727,33.717-2.81,48.469,26.693,48.469,26.693Z" transform="translate(-100.859 -63.613)" fill="#3f3d56"/>
    <path id="Path_44" data-name="Path 44" d="M781.337,402.118S800.3,380.342,805.922,367a34.486,34.486,0,0,1,18.232-17.927s42.179,9.5,41.477,26.356-26.693,42.849-26.693,42.849,3.512,93.425-15.454,92.02a40.68,40.68,0,0,1-8.429-16.859c-2.107-9.834-67.435-20.371-67.435-20.371s-5.62,9.834-6.322,5.62,5.62-107.474,5.62-107.474l33.5-22.142Z" transform="translate(-100.859 -63.613)" fill="#d0cde1"/>
    <path id="Path_45" data-name="Path 45" d="M860.219,368.639l.47.264a9.691,9.691,0,0,1,4.948,8.453l-.007,52.13a9.768,9.768,0,0,0,3.475,7.434c2.706,2.3,5.215,5.618.037,7.344-8.429,2.81-41.444,16.859-42.147,11.942s-2.107-10.537,0-10.537c1.65,0,11.479-50.371,19.378-71.908a9.693,9.693,0,0,1,13.846-5.123Z" transform="translate(-100.859 -63.613)" fill="#d0cde1"/>
    <path id="Path_46" data-name="Path 46" d="M756.4,368.752l-9.834,2.81L735.327,420.03s-13.346,2.81-9.132,7.727,21.776,17.561,21.776,17.561Z" transform="translate(-100.859 -63.613)" fill="#d0cde1"/>
    <path id="Path_47" data-name="Path 47" d="M812.714,269.332a24,24,0,0,0-18.937-9.664h-.9c-17.323,0-31.366,15.675-31.366,35.011h5.8l.937-7.135,1.374,7.135h34.426l2.884-6.036-.721,6.036h6.773q4.74,23.542-13.622,47.084H810.9l5.768-12.073-1.442,12.073h21.992L841.549,314C841.549,293.2,829.466,275.566,812.714,269.332Z" transform="translate(-100.859 -63.613)" fill="#2f2e41"/>
    <path id="Path_48" data-name="Path 48" d="M224.394,593.342c7.39-16.09,12.587-54.227,12.587-98.727,0-59.038-17.316-117.792-28.6-117.792H174.34V809.861h34.044V612.406H344.56V809.861H378.6V593.342Zm-16.01-.75c.11.252.22.508.331.75h-.331Z" transform="translate(-100.859 -63.613)" fill="#3f3d56"/>
    <path id="Path_49" data-name="Path 49" d="M366.292,514.342s41,17,28,27-40-12-39-15-4-10-4-10Z" transform="translate(-100.859 -63.613)" fill="#9f616a"/>
    <path id="Path_50" data-name="Path 50" d="M330.292,380.342l13,12,3,35,10,37s17,35,14,42,3,9,3,9l-23,9s-25-28-25-34S330.292,380.342,330.292,380.342Z" transform="translate(-100.859 -63.613)" fill="#575a88"/>
    <path id="Path_51" data-name="Path 51" d="M330.292,380.342l13,12,3,35,10,37s17,35,14,42,3,9,3,9l-23,9s-25-28-25-34S330.292,380.342,330.292,380.342Z" transform="translate(-100.859 -63.613)" opacity="0.1"/>
    <path id="Path_52" data-name="Path 52" d="M453.292,740.342s-5,23-6,25,19,9,19,9l24-17s-10-22-10-26Z" transform="translate(-100.859 -63.613)" fill="#575a88"/>
    <path id="Path_53" data-name="Path 53" d="M322.292,516.342l7,8s145,18,148,46,24,160,12,164-43,19-43,11-20-118-16-138c0,0-173-22-177-47s4-36,4-36Z" transform="translate(-100.859 -63.613)" fill="#2f2e41"/>
    <path id="Path_54" data-name="Path 54" d="M322.292,516.342l7,8s145,18,148,46,24,160,12,164-43,19-43,11-20-118-16-138c0,0-173-22-177-47s4-36,4-36Z" transform="translate(-100.859 -63.613)" opacity="0.1"/>
    <path id="Path_55" data-name="Path 55" d="M451.292,763.342s-4-9-6-6-9,38-2,38,71,16,80,14,26,1,24-9-12-11-12-11-37-22-39-33-13-5-13-5v7S462.292,774.342,451.292,763.342Z" transform="translate(-100.859 -63.613)" fill="#2f2e41"/>
    <path id="Path_56" data-name="Path 56" d="M261.292,304.342s7,34-8,37,19,23,19,23l22,12,16-16s-14.5-29.5-3.5-51.5S261.292,304.342,261.292,304.342Z" transform="translate(-100.859 -63.613)" fill="#9f616a"/>
    <path id="Path_57" data-name="Path 57" d="M310.292,360.342l-16,16-22-12s-34-20-19-23c9.65-1.93,10.19-16.69,9.36-26.97a92.98,92.98,0,0,0-1.36-10.03s56.5-17.5,45.5,4.5a38.362,38.362,0,0,0-3.44,10.76C299.982,339.372,310.292,360.342,310.292,360.342Z" transform="translate(-100.859 -63.613)" fill="#9f616a"/>
    <path id="Path_58" data-name="Path 58" d="M265.433,705.728v23h38l3-9-4-24Z" fill="#575a88"/>
    <path id="Path_59" data-name="Path 59" d="M209.292,536.342s0,59,24,61,110,13,110,13,5,98,14,130,1,34,9,36,42-5,41-12-5-184-5-184,9-38-111-56Z" transform="translate(-100.859 -63.613)" fill="#2f2e41"/>
    <path id="Path_60" data-name="Path 60" d="M369.292,785.342s-6-13-7-9-13,39-1,42,50,19,75,18,28-2,28-2,7-10-2-16-46-41-48-45-17-7-17,0S376.292,794.342,369.292,785.342Z" transform="translate(-100.859 -63.613)" fill="#2f2e41"/>
    <path id="Path_61" data-name="Path 61" d="M306.792,308.842a38.362,38.362,0,0,0-3.44,10.76c-4.98,3.01-8.31,2.24-14.56,2.24-9.27,0-13.01-11.85-19-18-.47-5.71-8.5.5-8.5.5S317.792,286.842,306.792,308.842Z" transform="translate(-100.859 -63.613)" opacity="0.1"/>
    <circle id="Ellipse_8" data-name="Ellipse 8" cx="33" cy="33" r="33" transform="translate(152.433 191.728)" fill="#9f616a"/>
    <path id="Path_62" data-name="Path 62" d="M343.292,392.342s-5,36-8,49-7,73-9,81-14,10-38,7a45.11,45.11,0,0,0-4.54-.34c-14.78-.47-31.69,5.06-47.34,9.4-9,2.5-17.59,4.6-25.12,4.94-11.4.52-14.74-12.12-14.35-25.8.37-12.73,3.98-26.38,7.35-31.2,6.07-8.68.1-86.61,2.34-112.31v-.01c.34-3.92.87-6.62,1.66-7.68,6-8,45-28,49.37-27.19s41.63,24.19,41.63,24.19c9,0,8.71-9.76,8.71-9.76s6.29,11.76,18.29,14.76S343.292,392.342,343.292,392.342Z" transform="translate(-100.859 -63.613)" fill="#575a88"/>
    <path id="Path_63" data-name="Path 63" d="M276.445,521.984s64.416,2.051,53.132,9.7-61.284,14.653-62.284,4.653S276.445,521.984,276.445,521.984Z" transform="translate(-100.859 -63.613)" fill="#9f616a"/>
    <path id="Path_64" data-name="Path 64" d="M283.752,529c.21,3.84-10.12,12.49-13.46,18.34-1.85,3.24-16.17-1.03-33.88-8.94a347.393,347.393,0,0,1-39.47-20.86c.37-12.73,3.98-26.38,7.35-31.2,6.07-8.68.1-86.61,2.34-112.31v-.01a11.088,11.088,0,0,1,1.66-.68h12c41,19-6,101-6,101s62,51,68,53A1.8,1.8,0,0,1,283.752,529Z" transform="translate(-100.859 -63.613)" opacity="0.1"/>
    <path id="Path_65" data-name="Path 65" d="M220.292,367.342h-12s-11,3-20,23-42,82-13,106,91,52,95,45,18-18,12-20-68-53-68-53S261.292,386.342,220.292,367.342Z" transform="translate(-100.859 -63.613)" fill="#575a88"/>
    <path id="Path_66" data-name="Path 66" d="M281.215,272.986s1.448-20.048,19.314-11.873,16.7-14.357,11.3-18.338-5.228-4.967-24.974-2.3-58.082,7.177-45.686,46.88,23.622,29.49,23.622,29.49-9.853-35.728.13-28.921l9.983,6.807,5.268-1.116Z" transform="translate(-100.859 -63.613)" fill="#2f2e41"/>
    <path id="Path_67" data-name="Path 67" d="M1018.39,561.66c0-18.05-134.13-32.682-299.587-32.682S419.216,543.61,419.216,561.66c0,7,20.159,13.477,54.47,18.793v223.6h16.341V582.758c54.954,7.084,137.042,11.584,228.775,11.584,92.491,0,175.182-4.573,230.137-11.759v221.47H965.28V580.238C998.764,574.963,1018.39,568.562,1018.39,561.66Z" transform="translate(-100.859 -63.613)" fill="#3f3d56"/>
    <ellipse id="Ellipse_9" data-name="Ellipse 9" cx="61" cy="15" rx="61" ry="15" transform="translate(594.481 468.728)" fill="#f2f2f2"/>
    <ellipse id="Ellipse_10" data-name="Ellipse 10" cx="50" cy="12.295" rx="50" ry="12.295" transform="translate(605.481 471.433)" fill="#d0cde1"/>
    <ellipse id="Ellipse_11" data-name="Ellipse 11" cx="61" cy="15" rx="61" ry="15" transform="translate(367.481 480.728)" fill="#f2f2f2"/>
    <ellipse id="Ellipse_12" data-name="Ellipse 12" cx="50" cy="12.295" rx="50" ry="12.295" transform="translate(378.481 483.433)" fill="#d0cde1"/>
    <ellipse id="Ellipse_13" data-name="Ellipse 13" cx="29.08" cy="4.592" rx="29.08" ry="4.592" transform="translate(624.981 473.486)" fill="#9f616a"/>
    <ellipse id="Ellipse_14" data-name="Ellipse 14" cx="9.183" cy="4.974" rx="9.183" ry="4.974" transform="translate(629.382 466.407)" fill="#6c63ff"/>
    <ellipse id="Ellipse_15" data-name="Ellipse 15" cx="9.183" cy="4.974" rx="9.183" ry="4.974" transform="translate(625.938 466.407)" fill="#6c63ff"/>
    <ellipse id="Ellipse_16" data-name="Ellipse 16" cx="9.183" cy="4.974" rx="9.183" ry="4.974" transform="translate(666.115 467.555)" fill="#6c63ff"/>
    <ellipse id="Ellipse_17" data-name="Ellipse 17" cx="9.183" cy="4.974" rx="9.183" ry="4.974" transform="translate(645.07 466.407)" fill="#6c63ff"/>
    <ellipse id="Ellipse_18" data-name="Ellipse 18" cx="9.183" cy="4.974" rx="9.183" ry="4.974" transform="translate(660.758 466.407)" fill="#6c63ff"/>
    <path id="Path_68" data-name="Path 68" d="M782.661,531.934q-24.9,8.448-55.865,0v-.775a22.82,22.82,0,0,1,21.67-22.8,143.332,143.332,0,0,1,14.774.019,20.62,20.62,0,0,1,19.421,20.637Z" transform="translate(-100.859 -63.613)" fill="#3f3d56"/>
    <path id="Path_69" data-name="Path 69" d="M774.513,553.02a183.559,183.559,0,0,1-36.89,0,11.786,11.786,0,0,1-10.635-11.711h58.161A11.786,11.786,0,0,1,774.513,553.02Z" transform="translate(-100.859 -63.613)" fill="#3f3d56"/>
    <path id="Path_70" data-name="Path 70" d="M747.076,515.48a10.943,10.943,0,0,1-8.418,0,10.943,10.943,0,0,1,8.418,0Z" transform="translate(-100.859 -63.613)" fill="#d0cde1"/>
    <path id="Path_71" data-name="Path 71" d="M755.494,518.924a10.943,10.943,0,0,1-8.418,0,10.943,10.943,0,0,1,8.418,0Z" transform="translate(-100.859 -63.613)" fill="#d0cde1"/>
    <path id="Path_72" data-name="Path 72" d="M756.26,512.8a10.943,10.943,0,0,1-8.418,0A10.944,10.944,0,0,1,756.26,512.8Z" transform="translate(-100.859 -63.613)" fill="#d0cde1"/>
    <path id="Path_73" data-name="Path 73" d="M771.948,512.8a10.944,10.944,0,0,1-8.418,0,10.944,10.944,0,0,1,8.418,0Z" transform="translate(-100.859 -63.613)" fill="#d0cde1"/>
    <path id="Path_74" data-name="Path 74" d="M767.739,516.246a10.943,10.943,0,0,1-8.418,0,10.943,10.943,0,0,1,8.418,0Z" transform="translate(-100.859 -63.613)" fill="#d0cde1"/>
    <ellipse id="Ellipse_19" data-name="Ellipse 19" cx="29.08" cy="4.592" rx="29.08" ry="4.592" transform="translate(398.981 485.486)" fill="#9f616a"/>
    <ellipse id="Ellipse_20" data-name="Ellipse 20" cx="9.183" cy="4.974" rx="9.183" ry="4.974" transform="translate(403.382 478.407)" fill="#6c63ff"/>
    <ellipse id="Ellipse_21" data-name="Ellipse 21" cx="9.183" cy="4.974" rx="9.183" ry="4.974" transform="translate(399.938 478.407)" fill="#6c63ff"/>
    <ellipse id="Ellipse_22" data-name="Ellipse 22" cx="9.183" cy="4.974" rx="9.183" ry="4.974" transform="translate(440.115 479.555)" fill="#6c63ff"/>
    <ellipse id="Ellipse_23" data-name="Ellipse 23" cx="9.183" cy="4.974" rx="9.183" ry="4.974" transform="translate(419.07 478.407)" fill="#6c63ff"/>
    <ellipse id="Ellipse_24" data-name="Ellipse 24" cx="9.183" cy="4.974" rx="9.183" ry="4.974" transform="translate(434.758 478.407)" fill="#6c63ff"/>
    <path id="Path_75" data-name="Path 75" d="M556.661,543.934q-24.9,8.448-55.865,0v-.775a22.82,22.82,0,0,1,21.67-22.8,143.324,143.324,0,0,1,14.774.019,20.621,20.621,0,0,1,19.421,20.637Z" transform="translate(-100.859 -63.613)" fill="#3f3d56"/>
    <path id="Path_76" data-name="Path 76" d="M548.513,565.02a183.56,183.56,0,0,1-36.89,0,11.786,11.786,0,0,1-10.635-11.711h58.161A11.786,11.786,0,0,1,548.513,565.02Z" transform="translate(-100.859 -63.613)" fill="#3f3d56"/>
    <path id="Path_77" data-name="Path 77" d="M521.076,527.48a10.943,10.943,0,0,1-8.418,0,10.944,10.944,0,0,1,8.418,0Z" transform="translate(-100.859 -63.613)" fill="#d0cde1"/>
    <path id="Path_78" data-name="Path 78" d="M529.494,530.924a10.943,10.943,0,0,1-8.418,0,10.944,10.944,0,0,1,8.418,0Z" transform="translate(-100.859 -63.613)" fill="#d0cde1"/>
    <path id="Path_79" data-name="Path 79" d="M530.26,524.8a10.943,10.943,0,0,1-8.418,0A10.943,10.943,0,0,1,530.26,524.8Z" transform="translate(-100.859 -63.613)" fill="#d0cde1"/>
    <path id="Path_80" data-name="Path 80" d="M545.948,524.8a10.943,10.943,0,0,1-8.418,0A10.943,10.943,0,0,1,545.948,524.8Z" transform="translate(-100.859 -63.613)" fill="#d0cde1"/>
    <path id="Path_81" data-name="Path 81" d="M541.739,528.246a10.943,10.943,0,0,1-8.418,0A10.943,10.943,0,0,1,541.739,528.246Z" transform="translate(-100.859 -63.613)" fill="#d0cde1"/>
    <path id="Path_82" data-name="Path 82" d="M808.817,543.277l.141,3.1.179,4.017s-18.452,1.043-22.169,4.971a2.264,2.264,0,0,0-.237.273l-7.391-1.617-.018-3.641s.1-.057.3-.164l.159-.084A67.27,67.27,0,0,1,808.817,543.277Z" transform="translate(-100.859 -63.613)" fill="#6c63ff"/>
    <path id="Path_83" data-name="Path 83" d="M808.817,543.277l.141,3.1c-8.182.253-23.667,5.13-23.667,5.13l-5.669-1.292a67.082,67.082,0,0,1,29.2-6.936Z" transform="translate(-100.859 -63.613)" opacity="0.1"/>
    <path id="Path_84" data-name="Path 84" d="M779.78,550.13l5.51,1.376,1.678,3.858a2.255,2.255,0,0,0-.237.273l-7.39-1.618-.018-3.641s.1-.057.3-.164Z" transform="translate(-100.859 -63.613)" fill="#fff" opacity="0.1"/>
    <path id="Path_85" data-name="Path 85" d="M585.817,556.277l.141,3.1.179,4.017s-18.452,1.043-22.169,4.971a2.259,2.259,0,0,0-.237.273l-7.391-1.617-.018-3.641s.1-.057.3-.164l.159-.084A67.27,67.27,0,0,1,585.817,556.277Z" transform="translate(-100.859 -63.613)" fill="#6c63ff"/>
    <path id="Path_86" data-name="Path 86" d="M585.817,556.277l.141,3.1c-8.182.253-23.667,5.13-23.667,5.13l-5.669-1.292a67.083,67.083,0,0,1,29.2-6.936Z" transform="translate(-100.859 -63.613)" opacity="0.1"/>
    <path id="Path_87" data-name="Path 87" d="M556.78,563.13l5.51,1.376,1.678,3.858a2.259,2.259,0,0,0-.237.273l-7.391-1.618-.018-3.641s.1-.057.3-.164Z" transform="translate(-100.859 -63.613)" fill="#fff" opacity="0.1"/>
    <path id="Path_88" data-name="Path 88" d="M919.945,450.5a18.459,18.459,0,0,0-5.448-3.764V407.877a1.718,1.718,0,0,0-1.718-1.718H903.16a1.718,1.718,0,0,0-1.718,1.718v38.111a17.438,17.438,0,0,0-11.948,16.546v83.352a7.638,7.638,0,0,0,7.638,7.638h20.6a7.6,7.6,0,0,0,7.6-7.6v-82.4a18.355,18.355,0,0,0-5.395-13.02Z" transform="translate(-100.859 -63.613)" fill="#3f3d56"/>
    <rect id="Rectangle_13" data-name="Rectangle 13" width="35.846" height="47.352" transform="translate(788.636 411.139)" fill="#6c63ff"/>
    <path id="Path_89" data-name="Path 89" d="M915.272,408.815H914.5v-.937a1.718,1.718,0,0,0-1.718-1.718h-9.619a1.718,1.718,0,0,0-1.718,1.718v.937h-.774V412.8h.774v20.357H914.5V412.8h.774Z" transform="translate(-100.859 -63.613)" fill="#6c63ff"/>
    <path id="Path_90" data-name="Path 90" d="M632.934,484.223c-.949-2.025-1.7-3.457-1.96-3.95-16.09,3.971-26.825.615-28.518.022-.828,1.563-6,11.557-8.085,21.138-1.887,8.642-.792,14.436,3.256,17.22l.12.085.026.018c4.468,2.944,8.73,5.551,12.666,7.749q.8.443,1.5.823l.05.027.035.045a23.935,23.935,0,0,1,1.507,2.126,8.361,8.361,0,0,1,1.529,4.133v42.924l-.271.006c-10.263.209-16.616,1.949-16.616,3.441,0,1.637,7.618,3.461,18.548,3.461s18.548-1.824,18.548-3.461c0-1.47-6.245-3.2-16.334-3.433l-.272-.006.254-39.705a17.511,17.511,0,0,1,1.826-7.747c.2-.4.423-.8.651-1.169.183-.3.377-.59.577-.865l.037-.051.055-.03q.758-.414,1.61-.9l.067-.036c3.726-2.1,7.74-4.571,11.932-7.335,3.743-2.468,5.047-7.456,3.874-14.824C638.427,496.906,635.333,489.336,632.934,484.223Z" transform="translate(-100.859 -63.613)" fill="#d0cde1"/>
    <path id="Path_91" data-name="Path 91" d="M633.9,517.857c-4.4,2.9-8.025,5.07-10.8,6.636h0a63.207,63.207,0,0,0-12.142.341c-2.845-1.588-6.683-3.865-11.4-6.977-.045-.03-.09-.06-.134-.092v0c-4.331-2.979-4.438-9.289-3.029-15.741,3.584-.4,9.3-.224,16.978,2.519,9.093,3.248,18.611,1.411,24.126-.259C638.393,509.974,637.841,515.256,633.9,517.857Z" transform="translate(-100.859 -63.613)" fill="#6c63ff"/>
    <circle id="Ellipse_25" data-name="Ellipse 25" cx="1.245" cy="1.245" r="1.245" transform="translate(505.657 433.584)" fill="#6c63ff"/>
    <circle id="Ellipse_26" data-name="Ellipse 26" cx="1.245" cy="1.245" r="1.245" transform="translate(502.172 445.033)" fill="#fff"/>
    <circle id="Ellipse_27" data-name="Ellipse 27" cx="0.747" cy="0.747" r="0.747" transform="translate(509.141 437.068)" fill="#6c63ff"/>
    <circle id="Ellipse_28" data-name="Ellipse 28" cx="0.747" cy="0.747" r="0.747" transform="translate(512.128 451.256)" fill="#fff"/>
    <circle id="Ellipse_29" data-name="Ellipse 29" cx="0.747" cy="0.747" r="0.747" transform="translate(506.901 452.003)" fill="#fff"/>
    <circle id="Ellipse_30" data-name="Ellipse 30" cx="0.747" cy="0.747" r="0.747" transform="translate(522.084 427.112)" fill="#6c63ff"/>
    <path id="Path_92" data-name="Path 92" d="M691.313,443.758c-.949-2.025-1.7-3.457-1.96-3.95-16.09,3.971-26.825.615-28.518.022-.828,1.563-6,11.557-8.085,21.138-1.887,8.642-.792,14.436,3.256,17.22l.12.085.026.018c4.468,2.944,8.73,5.551,12.666,7.749q.8.443,1.5.823l.05.027.035.045a23.972,23.972,0,0,1,1.507,2.126,8.361,8.361,0,0,1,1.529,4.133v42.924l-.271.006c-10.263.209-16.616,1.949-16.616,3.441,0,1.637,7.618,3.461,18.548,3.461s18.548-1.824,18.548-3.461c0-1.47-6.245-3.2-16.334-3.433l-.272-.006.254-39.705a17.51,17.51,0,0,1,1.826-7.747c.2-.4.423-.8.651-1.169.183-.3.377-.59.577-.865l.037-.051.055-.03q.758-.414,1.61-.9l.067-.036c3.726-2.1,7.74-4.571,11.932-7.335,3.743-2.468,5.047-7.455,3.874-14.824C696.8,456.441,693.711,448.871,691.313,443.758Z" transform="translate(-100.859 -63.613)" fill="#d0cde1"/>
    <path id="Path_93" data-name="Path 93" d="M692.274,477.391c-4.4,2.9-8.025,5.07-10.8,6.636h0a63.2,63.2,0,0,0-12.142.341c-2.845-1.588-6.683-3.865-11.4-6.977-.045-.03-.09-.06-.134-.092v0c-4.331-2.979-4.438-9.289-3.029-15.741,3.584-.4,9.3-.224,16.978,2.519,9.093,3.248,18.611,1.411,24.126-.259C696.772,469.508,696.219,474.79,692.274,477.391Z" transform="translate(-100.859 -63.613)" fill="#6c63ff"/>
    <circle id="Ellipse_31" data-name="Ellipse 31" cx="1.245" cy="1.245" r="1.245" transform="translate(564.035 393.118)" fill="#6c63ff"/>
    <circle id="Ellipse_32" data-name="Ellipse 32" cx="1.245" cy="1.245" r="1.245" transform="translate(560.55 404.568)" fill="#fff"/>
    <circle id="Ellipse_33" data-name="Ellipse 33" cx="0.747" cy="0.747" r="0.747" transform="translate(567.52 396.603)" fill="#6c63ff"/>
    <circle id="Ellipse_34" data-name="Ellipse 34" cx="0.747" cy="0.747" r="0.747" transform="translate(570.507 410.79)" fill="#fff"/>
    <circle id="Ellipse_35" data-name="Ellipse 35" cx="0.747" cy="0.747" r="0.747" transform="translate(565.28 411.537)" fill="#fff"/>
    <circle id="Ellipse_36" data-name="Ellipse 36" cx="0.747" cy="0.747" r="0.747" transform="translate(580.463 386.647)" fill="#6c63ff"/>
  </g>
</svg>
